<svg width="719" height="213" viewBox="0 0 719 213" fill="none" xmlns="http://www.w3.org/2000/svg">
<g clip-path="url(#clip0_734_3987)">
<rect x="168" y="113" width="393" height="114" fill="url(#paint0_linear_734_3987)"/>
<path fill-rule="evenodd" clip-rule="evenodd" d="M199.154 26.8648C241.157 10.1092 283.923 35.4926 274.614 71.6534C266.444 103.391 247.715 136.306 218.556 166.376C189.398 196.446 153.929 219.423 117.065 234.129C75.0616 250.885 32.2955 225.502 41.6045 189.341C49.7748 157.603 68.5034 124.689 97.6622 94.6182C126.82 64.5484 162.289 41.5707 199.154 26.8648Z" fill="url(#paint1_linear_734_3987)"/>
<path fill-rule="evenodd" clip-rule="evenodd" d="M519.653 26.8652C477.651 10.1095 434.884 35.4929 444.193 71.6537C452.364 103.391 471.092 136.306 500.251 166.376C529.409 196.446 564.878 219.423 601.742 234.129C643.745 250.885 686.511 225.502 677.202 189.341C669.032 157.603 650.303 124.689 621.145 94.6183C591.986 64.5487 556.518 41.5711 519.653 26.8652Z" fill="url(#paint2_linear_734_3987)"/>
<path fill-rule="evenodd" clip-rule="evenodd" d="M639.031 138.787C651.863 164.768 623.601 190.849 588.741 185.197C553.208 179.435 516.806 165.773 484.618 144.422C452.43 123.073 429.247 97.2131 416.168 70.7316C403.337 44.7505 431.598 18.6696 466.459 24.3221C501.991 30.0835 538.393 43.7457 570.582 65.0963C602.769 86.4463 625.952 112.306 639.031 138.787Z" fill="url(#paint3_linear_734_3987)"/>
<path fill-rule="evenodd" clip-rule="evenodd" d="M464.048 10.548C475.351 7.983 486.3 8.34466 495.454 11.5853C550.991 31.248 580.736 60.2092 569.228 91.2873C557.72 122.365 507.506 148.684 438.928 164.247C427.625 166.812 416.676 166.45 407.522 163.21C351.985 143.547 322.24 114.586 333.748 83.5076C345.256 52.43 395.47 26.1106 464.048 10.548Z" fill="url(#paint4_linear_734_3987)"/>
<path fill-rule="evenodd" clip-rule="evenodd" d="M79.7774 138.787C66.9456 164.768 95.2074 190.849 130.068 185.197C165.6 179.435 202.001 165.773 234.19 144.423C266.377 123.073 289.56 97.2132 302.639 70.7318C315.471 44.7506 287.209 18.6697 252.349 24.3224C216.816 30.0839 180.415 43.7461 148.227 65.0964C116.039 86.4463 92.8564 112.306 79.7774 138.787Z" fill="url(#paint5_linear_734_3987)"/>
<path fill-rule="evenodd" clip-rule="evenodd" d="M254.76 10.5485C243.457 7.98348 232.508 8.34515 223.355 11.5858C167.818 31.2485 138.073 60.2097 149.581 91.2878C161.089 122.365 211.302 148.685 279.881 164.247C291.184 166.812 302.133 166.451 311.286 163.21C366.823 143.547 396.568 114.586 385.06 83.5081C373.553 52.4305 323.339 26.1111 254.76 10.5485Z" fill="url(#paint6_linear_734_3987)"/>
<path fill-rule="evenodd" clip-rule="evenodd" d="M451.838 40.1596C416.951 43.9602 403.987 78.4306 428.02 97.2892C440.384 106.991 454.961 115.721 471.484 122.976C499.339 135.208 528.886 141.564 556.83 142.442C591.203 143.521 614.171 112.429 594.74 90.259C582.284 76.0459 565.215 63.5784 544.178 54.3406C514.468 41.2946 481.853 36.8898 451.838 40.1596Z" fill="url(#paint7_radial_734_3987)"/>
<path fill-rule="evenodd" clip-rule="evenodd" d="M266.971 40.1592C301.858 43.9599 314.822 78.4302 290.789 97.2888C278.425 106.99 263.848 115.72 247.325 122.976C219.47 135.207 189.922 141.563 161.979 142.441C127.606 143.521 104.638 112.429 124.068 90.2584C136.525 76.0454 153.594 63.5779 174.631 54.3402C204.341 41.294 236.956 36.8892 266.971 40.1592Z" fill="url(#paint8_radial_734_3987)"/>
<path fill-rule="evenodd" clip-rule="evenodd" d="M472.165 28.3416C459.127 19.6291 441.676 19.4017 427.526 27.76C404.411 41.4132 389.538 60.1405 388.182 80.9593C386.825 101.778 399.234 120.861 420.531 135.092C433.568 143.805 451.02 144.032 465.17 135.674C488.285 122.021 503.157 103.293 504.514 82.4746C505.871 61.6559 493.462 42.5733 472.165 28.3416Z" fill="url(#paint9_radial_734_3987)"/>
<path fill-rule="evenodd" clip-rule="evenodd" d="M291.285 27.7592C277.134 19.401 259.683 19.6283 246.645 28.3406C225.348 42.5724 212.939 61.6552 214.295 82.4742C215.652 103.293 230.525 122.02 253.639 135.673C267.79 144.032 285.241 143.804 298.279 135.092C319.576 120.86 331.985 101.777 330.628 80.9584C329.272 60.1397 314.399 41.4124 291.285 27.7592Z" fill="url(#paint10_radial_734_3987)"/>
<path fill-rule="evenodd" clip-rule="evenodd" d="M327.483 30.4698C341.202 19.8071 360.842 19.5219 375.783 29.7683C397.807 44.8713 411.901 65.2345 413.22 87.802C414.539 110.369 402.847 131.107 382.625 146.824C368.906 157.486 349.266 157.772 334.325 147.525C312.301 132.422 298.206 112.059 296.887 89.4916C295.568 66.9242 307.261 46.1864 327.483 30.4698Z" fill="url(#paint11_radial_734_3987)"/>
</g>
<defs>
<linearGradient id="paint0_linear_734_3987" x1="364.5" y1="113" x2="364.903" y2="227" gradientUnits="userSpaceOnUse">
<stop stop-color="#008296"/>
<stop offset="0.36" stop-color="#1EA0B3"/>
<stop offset="0.55" stop-color="#60BFC1"/>
<stop offset="0.725" stop-color="#BADFD7"/>
<stop offset="1" stop-color="#F8E4DB"/>
</linearGradient>
<linearGradient id="paint1_linear_734_3987" x1="50.0696" y1="228.009" x2="200.813" y2="-4.23861" gradientUnits="userSpaceOnUse">
<stop stop-color="#F8E4DB"/>
<stop offset="0.0997837" stop-color="#BADFD7"/>
<stop offset="0.24" stop-color="#60BFC1"/>
<stop offset="0.4" stop-color="#1EA0B3"/>
<stop offset="0.565" stop-color="#008296"/>
<stop offset="0.885" stop-color="#1E1E1E"/>
</linearGradient>
<linearGradient id="paint2_linear_734_3987" x1="668.737" y1="228.008" x2="517.994" y2="-4.23814" gradientUnits="userSpaceOnUse">
<stop stop-color="#F8E4DB"/>
<stop offset="0.0997837" stop-color="#BADFD7"/>
<stop offset="0.24" stop-color="#60BFC1"/>
<stop offset="0.4" stop-color="#1EA0B3"/>
<stop offset="0.565" stop-color="#008296"/>
<stop offset="0.885" stop-color="#1E1E1E"/>
</linearGradient>
<linearGradient id="paint3_linear_734_3987" x1="423.099" y1="43.1994" x2="592.782" y2="220.602" gradientUnits="userSpaceOnUse">
<stop stop-color="#F8E4DB"/>
<stop offset="0.22" stop-color="#FFCCCB"/>
<stop offset="0.42" stop-color="#FDB7B9"/>
<stop offset="0.815" stop-color="#FF6984"/>
</linearGradient>
<linearGradient id="paint4_linear_734_3987" x1="465.893" y1="11.8827" x2="461.544" y2="171.415" gradientUnits="userSpaceOnUse">
<stop stop-color="#F8E4DB"/>
<stop offset="0.22" stop-color="#FFCCCB"/>
<stop offset="0.42" stop-color="#FDB7B9"/>
<stop offset="0.815" stop-color="#FF6984"/>
</linearGradient>
<linearGradient id="paint5_linear_734_3987" x1="295.709" y1="43.1997" x2="126.026" y2="220.601" gradientUnits="userSpaceOnUse">
<stop stop-color="#F8E4DB"/>
<stop offset="0.22" stop-color="#FFCCCB"/>
<stop offset="0.42" stop-color="#FDB7B9"/>
<stop offset="0.815" stop-color="#FF6984"/>
</linearGradient>
<linearGradient id="paint6_linear_734_3987" x1="252.916" y1="11.8832" x2="257.264" y2="171.416" gradientUnits="userSpaceOnUse">
<stop stop-color="#F8E4DB"/>
<stop offset="0.22" stop-color="#FFCCCB"/>
<stop offset="0.42" stop-color="#FDB7B9"/>
<stop offset="0.815" stop-color="#FF6984"/>
</linearGradient>
<radialGradient id="paint7_radial_734_3987" cx="0" cy="0" r="1" gradientUnits="userSpaceOnUse" gradientTransform="translate(421.946 45.4569) rotate(24.5962) scale(167.881 453.295)">
<stop stop-color="#FF8BA0"/>
<stop offset="0.26" stop-color="#FDB7B9"/>
<stop offset="0.71" stop-color="#FFCCCB"/>
<stop offset="1" stop-color="#F8E4DB"/>
</radialGradient>
<radialGradient id="paint8_radial_734_3987" cx="0" cy="0" r="1" gradientUnits="userSpaceOnUse" gradientTransform="translate(296.863 45.4564) rotate(155.404) scale(167.881 453.296)">
<stop stop-color="#FF8BA0"/>
<stop offset="0.26" stop-color="#FDB7B9"/>
<stop offset="0.71" stop-color="#FFCCCB"/>
<stop offset="1" stop-color="#F8E4DB"/>
</radialGradient>
<radialGradient id="paint9_radial_734_3987" cx="0" cy="0" r="1" gradientUnits="userSpaceOnUse" gradientTransform="translate(456.119 29.2662) rotate(95.5895) scale(101.226 568.94)">
<stop stop-color="#FF8BA0"/>
<stop offset="0.26" stop-color="#FDB7B9"/>
<stop offset="0.71" stop-color="#FFCCCB"/>
<stop offset="1" stop-color="#F8E4DB"/>
</radialGradient>
<radialGradient id="paint10_radial_734_3987" cx="0" cy="0" r="1" gradientUnits="userSpaceOnUse" gradientTransform="translate(262.69 29.2654) rotate(84.4105) scale(101.227 568.942)">
<stop stop-color="#FF8BA0"/>
<stop offset="0.26" stop-color="#FDB7B9"/>
<stop offset="0.71" stop-color="#FFCCCB"/>
<stop offset="1" stop-color="#F8E4DB"/>
</radialGradient>
<radialGradient id="paint11_radial_734_3987" cx="0" cy="0" r="1" gradientUnits="userSpaceOnUse" gradientTransform="translate(345.313 30.6949) rotate(84.9685) scale(111.743 569.46)">
<stop stop-color="#FF8BA0"/>
<stop offset="0.26" stop-color="#FDB7B9"/>
<stop offset="0.71" stop-color="#FFCCCB"/>
<stop offset="1" stop-color="#F8E4DB"/>
</radialGradient>
<clipPath id="clip0_734_3987">
<rect width="719" height="213" fill="white"/>
</clipPath>
</defs>
</svg>
