<svg width="393" height="114" viewBox="0 0 393 114" fill="none" xmlns="http://www.w3.org/2000/svg">
<g clip-path="url(#clip0_876_5343)">
<rect width="393" height="114" fill="url(#paint0_linear_876_5343)"/>
<path fill-rule="evenodd" clip-rule="evenodd" d="M36.1537 -72.1341C78.1567 -88.8899 120.923 -63.5064 111.614 -27.3455C103.443 4.39197 84.7149 37.3062 55.5563 67.3763C26.3982 97.4458 -9.0703 120.423 -45.9347 135.129C-87.9377 151.885 -130.704 126.502 -121.395 90.3407C-113.224 58.6032 -94.4958 25.689 -65.3373 -4.38111C-36.1792 -34.4507 -0.710677 -57.4282 36.1537 -72.1341Z" fill="url(#paint1_linear_876_5343)"/>
<path fill-rule="evenodd" clip-rule="evenodd" d="M356.654 -72.135C314.651 -88.8906 271.885 -63.5074 281.194 -27.3466C289.364 4.39129 308.093 37.306 337.252 67.3765C366.41 97.4461 401.878 120.424 438.743 135.13C480.746 151.885 523.512 126.502 514.203 90.3413C506.033 58.6034 487.304 25.6886 458.145 -4.38186C428.987 -34.4515 393.518 -57.4291 356.654 -72.135Z" fill="url(#paint2_linear_876_5343)"/>
<path fill-rule="evenodd" clip-rule="evenodd" d="M476.033 39.787C488.865 65.7681 460.603 91.849 425.743 86.1966C390.21 80.4351 353.809 66.7729 321.62 45.4223C289.432 24.0724 266.25 -1.78696 253.171 -28.2683C240.339 -54.2495 268.6 -80.3304 303.461 -74.6779C338.993 -68.9165 375.395 -55.2543 407.584 -33.9037C439.771 -12.5538 462.954 13.3056 476.033 39.787Z" fill="url(#paint3_linear_876_5343)"/>
<path fill-rule="evenodd" clip-rule="evenodd" d="M332.456 -87.4143C323.302 -90.655 312.353 -91.0167 301.05 -88.4518C232.471 -72.8892 182.256 -46.5696 170.748 -15.4917C159.241 15.586 188.985 44.5469 244.521 64.2096C253.674 67.4503 264.623 67.812 275.926 65.2471C344.506 49.6845 394.72 23.3649 406.228 -7.71299C417.736 -38.7908 387.991 -67.7516 332.456 -87.4143Z" fill="url(#paint4_linear_876_5343)"/>
<path fill-rule="evenodd" clip-rule="evenodd" d="M-83.2226 39.7869C-96.0545 65.7682 -67.7927 91.8491 -32.9322 86.1964C2.60004 80.4349 39.0013 66.7727 71.1895 45.4224C103.377 24.0726 126.56 -1.78682 139.639 -28.2682C152.471 -54.2494 124.209 -80.3303 89.3483 -74.6777C53.8161 -68.9161 17.4149 -55.2539 -14.7733 -33.9036C-46.9608 -12.5538 -70.1437 13.3056 -83.2226 39.7869Z" fill="url(#paint5_linear_876_5343)"/>
<path fill-rule="evenodd" clip-rule="evenodd" d="M60.353 -87.4143C69.5062 -90.655 80.4552 -91.0167 91.7582 -88.4518C160.338 -72.8892 210.552 -46.5696 222.06 -15.4917C233.568 15.586 203.824 44.5469 148.288 64.2096C139.135 67.4503 128.186 67.812 116.883 65.2471C48.3029 49.6845 -1.9115 23.3649 -13.4193 -7.71299C-24.9271 -38.7908 4.81718 -67.7516 60.353 -87.4143Z" fill="url(#paint6_linear_876_5343)"/>
<path fill-rule="evenodd" clip-rule="evenodd" d="M288.835 -58.8406C253.948 -55.04 240.984 -20.5696 265.018 -1.71103C277.382 7.99078 291.959 16.7208 308.482 23.9762C336.337 36.2079 365.884 42.5638 393.828 43.4416C428.201 44.5214 451.169 13.4291 431.738 -8.74103C419.282 -22.9542 402.213 -35.4218 381.176 -44.6596C351.466 -57.7057 318.85 -62.1105 288.835 -58.8406Z" fill="url(#paint7_radial_876_5343)"/>
<path fill-rule="evenodd" clip-rule="evenodd" d="M-38.9327 -8.74203C-58.3628 13.428 -35.3952 44.5202 -1.02232 43.4407C26.9214 42.563 56.4694 36.2071 84.3251 23.9752C100.848 16.7198 115.425 7.98989 127.789 -1.71186C151.822 -20.5703 138.858 -55.0406 103.971 -58.8415C73.9561 -62.1116 41.3402 -57.7068 11.63 -44.6605C-9.40724 -35.4227 -26.4761 -22.9552 -38.9327 -8.74203Z" fill="url(#paint8_radial_876_5343)"/>
<path fill-rule="evenodd" clip-rule="evenodd" d="M309.165 -70.6587C296.128 -79.3712 278.676 -79.5986 264.526 -71.2404C241.411 -57.5872 226.538 -38.8597 225.182 -18.0409C223.825 2.77764 236.234 21.8602 257.53 36.0919C270.568 44.8044 288.02 45.0318 302.17 36.6736C325.284 23.0204 340.157 4.29295 341.514 -16.5259C342.871 -37.3444 330.462 -56.427 309.165 -70.6587Z" fill="url(#paint9_radial_876_5343)"/>
<path fill-rule="evenodd" clip-rule="evenodd" d="M83.6444 -70.6617C96.6822 -79.3742 114.134 -79.6016 128.284 -71.2433C151.398 -57.5901 166.271 -38.8628 167.628 -18.044C168.985 2.77466 156.576 21.8573 135.279 36.089C122.241 44.8015 104.79 45.0289 90.6395 36.6706C67.525 23.0174 52.6522 4.29004 51.2955 -16.5288C49.9388 -37.3474 62.3474 -56.43 83.6444 -70.6617Z" fill="url(#paint10_radial_876_5343)"/>
<path fill-rule="evenodd" clip-rule="evenodd" d="M164.483 -68.5304C178.202 -79.193 197.842 -79.4783 212.783 -69.232C234.807 -54.129 248.902 -33.7656 250.221 -11.198C251.54 11.3694 239.847 32.1073 219.625 47.8239C205.906 58.4865 186.267 58.7718 171.325 48.5255C149.301 33.4225 135.206 13.059 133.887 -9.50853C132.568 -32.076 144.261 -52.8138 164.483 -68.5304Z" fill="url(#paint11_radial_876_5343)"/>
</g>
<defs>
<linearGradient id="paint0_linear_876_5343" x1="196.5" y1="0" x2="196.903" y2="114" gradientUnits="userSpaceOnUse">
<stop stop-color="#008296"/>
<stop offset="0.36" stop-color="#1EA0B3"/>
<stop offset="0.55" stop-color="#60BFC1"/>
<stop offset="0.725" stop-color="#BADFD7"/>
<stop offset="1" stop-color="#F8E4DB"/>
</linearGradient>
<linearGradient id="paint1_linear_876_5343" x1="-112.93" y1="129.009" x2="37.813" y2="-103.238" gradientUnits="userSpaceOnUse">
<stop stop-color="#F8E4DB"/>
<stop offset="0.0997837" stop-color="#BADFD7"/>
<stop offset="0.24" stop-color="#60BFC1"/>
<stop offset="0.4" stop-color="#1EA0B3"/>
<stop offset="0.565" stop-color="#008296"/>
<stop offset="0.885" stop-color="#1E1E1E"/>
</linearGradient>
<linearGradient id="paint2_linear_876_5343" x1="505.738" y1="129.009" x2="354.995" y2="-103.238" gradientUnits="userSpaceOnUse">
<stop stop-color="#F8E4DB"/>
<stop offset="0.0997837" stop-color="#BADFD7"/>
<stop offset="0.24" stop-color="#60BFC1"/>
<stop offset="0.4" stop-color="#1EA0B3"/>
<stop offset="0.565" stop-color="#008296"/>
<stop offset="0.885" stop-color="#1E1E1E"/>
</linearGradient>
<linearGradient id="paint3_linear_876_5343" x1="260.101" y1="-55.8007" x2="429.784" y2="121.601" gradientUnits="userSpaceOnUse">
<stop stop-color="#F8E4DB"/>
<stop offset="0.22" stop-color="#FFCCCB"/>
<stop offset="0.42" stop-color="#FDB7B9"/>
<stop offset="0.815" stop-color="#FF6984"/>
</linearGradient>
<linearGradient id="paint4_linear_876_5343" x1="302.893" y1="-87.1171" x2="298.545" y2="72.4155" gradientUnits="userSpaceOnUse">
<stop stop-color="#F8E4DB"/>
<stop offset="0.22" stop-color="#FFCCCB"/>
<stop offset="0.42" stop-color="#FDB7B9"/>
<stop offset="0.815" stop-color="#FF6984"/>
</linearGradient>
<linearGradient id="paint5_linear_876_5343" x1="132.709" y1="-55.8004" x2="-36.9737" y2="121.601" gradientUnits="userSpaceOnUse">
<stop stop-color="#F8E4DB"/>
<stop offset="0.22" stop-color="#FFCCCB"/>
<stop offset="0.42" stop-color="#FDB7B9"/>
<stop offset="0.815" stop-color="#FF6984"/>
</linearGradient>
<linearGradient id="paint6_linear_876_5343" x1="89.9156" y1="-87.1171" x2="94.2641" y2="72.4155" gradientUnits="userSpaceOnUse">
<stop stop-color="#F8E4DB"/>
<stop offset="0.22" stop-color="#FFCCCB"/>
<stop offset="0.42" stop-color="#FDB7B9"/>
<stop offset="0.815" stop-color="#FF6984"/>
</linearGradient>
<radialGradient id="paint7_radial_876_5343" cx="0" cy="0" r="1" gradientUnits="userSpaceOnUse" gradientTransform="translate(258.944 -53.5433) rotate(24.5962) scale(167.881 453.296)">
<stop stop-color="#FF8BA0"/>
<stop offset="0.26" stop-color="#FDB7B9"/>
<stop offset="0.71" stop-color="#FFCCCB"/>
<stop offset="1" stop-color="#F8E4DB"/>
</radialGradient>
<radialGradient id="paint8_radial_876_5343" cx="0" cy="0" r="1" gradientUnits="userSpaceOnUse" gradientTransform="translate(133.862 -53.5444) rotate(155.404) scale(167.881 453.298)">
<stop stop-color="#FF8BA0"/>
<stop offset="0.26" stop-color="#FDB7B9"/>
<stop offset="0.71" stop-color="#FFCCCB"/>
<stop offset="1" stop-color="#F8E4DB"/>
</radialGradient>
<radialGradient id="paint9_radial_876_5343" cx="0" cy="0" r="1" gradientUnits="userSpaceOnUse" gradientTransform="translate(293.119 -69.7342) rotate(95.5895) scale(101.226 568.94)">
<stop stop-color="#FF8BA0"/>
<stop offset="0.26" stop-color="#FDB7B9"/>
<stop offset="0.71" stop-color="#FFCCCB"/>
<stop offset="1" stop-color="#F8E4DB"/>
</radialGradient>
<radialGradient id="paint10_radial_876_5343" cx="0" cy="0" r="1" gradientUnits="userSpaceOnUse" gradientTransform="translate(99.6901 -69.7371) rotate(84.4105) scale(101.226 568.94)">
<stop stop-color="#FF8BA0"/>
<stop offset="0.26" stop-color="#FDB7B9"/>
<stop offset="0.71" stop-color="#FFCCCB"/>
<stop offset="1" stop-color="#F8E4DB"/>
</radialGradient>
<radialGradient id="paint11_radial_876_5343" cx="0" cy="0" r="1" gradientUnits="userSpaceOnUse" gradientTransform="translate(182.313 -68.3053) rotate(84.9685) scale(111.743 569.462)">
<stop stop-color="#FF8BA0"/>
<stop offset="0.26" stop-color="#FDB7B9"/>
<stop offset="0.71" stop-color="#FFCCCB"/>
<stop offset="1" stop-color="#F8E4DB"/>
</radialGradient>
<clipPath id="clip0_876_5343">
<rect width="393" height="114" fill="white"/>
</clipPath>
</defs>
</svg>
