<svg width="283" height="194" viewBox="0 0 283 194" fill="none" xmlns="http://www.w3.org/2000/svg">
<path fill-rule="evenodd" clip-rule="evenodd" d="M213.257 178.07C227.144 180.63 237.308 167.233 231.101 154.549C225.039 142.159 215.294 130.195 202.407 120.418C189.52 110.642 175.373 104.48 161.808 101.979C147.921 99.4191 137.757 112.816 143.964 125.5C150.026 137.89 159.771 149.854 172.658 159.631C185.545 169.407 199.692 175.569 213.257 178.07Z" fill="url(#paint0_linear_1031_6556)"/>
<path fill-rule="evenodd" clip-rule="evenodd" d="M188.553 166.36C198.188 169.626 207.377 161.835 205.732 151.796C203.706 139.435 197.869 126.597 188.331 115.346C178.793 104.097 167.085 96.2381 155.222 92.2168C145.588 88.9508 136.399 96.7409 138.044 106.78C140.069 119.142 145.907 131.979 155.445 143.23C164.982 154.48 176.691 162.338 188.553 166.36Z" fill="url(#paint1_linear_1031_6556)"/>
<path fill-rule="evenodd" clip-rule="evenodd" d="M160.309 107.458C147.469 106.207 139.911 93.1175 145.248 81.3716C153.545 63.1077 168.558 46.2659 188.876 34.5356C209.193 22.8056 231.284 18.2243 251.249 20.1701C264.089 21.4215 271.647 34.5106 266.31 46.2565C258.013 64.5204 243 81.3622 222.682 93.0925C202.365 104.822 180.274 109.404 160.309 107.458Z" fill="url(#paint2_linear_1031_6556)"/>
<path fill-rule="evenodd" clip-rule="evenodd" d="M241.044 100.625C248.248 94.166 247.002 82.8995 238.561 78.1706C225.435 70.8172 208.881 67.3064 191.391 69.2407C173.903 71.175 158.516 78.218 147.314 88.2616C140.11 94.7206 141.356 105.987 149.798 110.716C162.924 118.069 179.478 121.58 196.967 119.646C214.456 117.712 229.842 110.669 241.044 100.625Z" fill="url(#paint3_linear_1031_6556)"/>
<path fill-rule="evenodd" clip-rule="evenodd" d="M144.235 100.542C146.475 91.2073 157.631 88.367 164.782 94.7709C169.748 99.2171 174.198 104.705 177.781 111.089C183.597 121.451 186.208 132.535 185.865 142.728C185.547 152.148 175.799 157.816 167.595 153.176C160.305 149.053 153.872 142.767 149.325 134.667C143.133 123.634 141.636 111.365 144.235 100.542Z" fill="url(#paint4_radial_1031_6556)"/>
<path fill-rule="evenodd" clip-rule="evenodd" d="M200.429 108.48C209.659 103.835 209.298 91.4279 199.813 87.3279C192.366 84.1084 183.615 82.3761 174.299 82.6476C164.983 82.919 156.348 85.1577 149.101 88.8051C139.871 93.4503 140.232 105.857 149.717 109.957C157.165 113.177 165.915 114.909 175.231 114.638C184.547 114.366 193.182 112.127 200.429 108.48Z" fill="url(#paint5_radial_1031_6556)"/>
<path fill-rule="evenodd" clip-rule="evenodd" d="M67.02 179.754C53.1337 182.314 42.9698 168.917 49.1759 156.234C55.2387 143.844 64.9837 131.879 77.8707 122.103C90.7575 112.326 104.904 106.164 118.47 103.664C132.356 101.104 142.52 114.501 136.314 127.184C130.251 139.574 120.506 151.539 107.619 161.315C94.7322 171.092 80.5854 177.254 67.02 179.754Z" fill="url(#paint6_linear_1031_6556)"/>
<path fill-rule="evenodd" clip-rule="evenodd" d="M93.9467 166.36C84.3119 169.626 75.1228 161.835 76.7679 151.796C78.7936 139.435 84.6308 126.597 94.1691 115.346C103.707 104.097 115.415 96.2381 127.278 92.2168C136.912 88.9508 146.101 96.7409 144.456 106.78C142.431 119.142 136.593 131.979 127.055 143.23C117.518 154.48 105.809 162.338 93.9467 166.36Z" fill="url(#paint7_linear_1031_6556)"/>
<path fill-rule="evenodd" clip-rule="evenodd" d="M122.191 107.458C135.031 106.207 142.589 93.1175 137.252 81.3716C128.955 63.1076 113.942 46.2659 93.6241 34.5356C73.3073 22.8057 51.2161 18.2243 31.251 20.1701C18.4107 21.4215 10.8534 34.5106 16.1896 46.2565C24.4868 64.5204 39.5003 81.3622 59.8179 93.0925C80.1347 104.822 102.226 109.404 122.191 107.458Z" fill="url(#paint8_linear_1031_6556)"/>
<path fill-rule="evenodd" clip-rule="evenodd" d="M41.4557 100.626C34.2517 94.167 35.4976 82.9004 43.9389 78.1716C57.0652 70.8182 73.6191 67.3074 91.1085 69.2417C108.597 71.1759 123.984 78.219 135.186 88.2626C142.39 94.7216 141.144 105.988 132.702 110.717C119.576 118.07 103.022 121.581 85.5328 119.647C68.0439 117.713 52.6577 110.67 41.4557 100.626Z" fill="url(#paint9_linear_1031_6556)"/>
<path fill-rule="evenodd" clip-rule="evenodd" d="M138.687 100.541C136.447 91.2063 125.291 88.3661 118.139 94.77C113.174 99.2161 108.724 104.704 105.141 111.088C99.3254 121.45 96.7136 132.534 97.0573 142.727C97.3749 152.147 107.123 157.815 115.327 153.175C122.617 149.052 129.05 142.766 133.597 134.666C139.789 123.633 141.286 111.364 138.687 100.541Z" fill="url(#paint10_radial_1031_6556)"/>
<path fill-rule="evenodd" clip-rule="evenodd" d="M82.0706 108.48C72.8405 103.835 73.2019 91.4279 82.6867 87.3279C90.1344 84.1084 98.8852 82.3761 108.201 82.6475C117.517 82.919 126.152 85.1577 133.399 88.8051C142.629 93.4503 142.268 105.857 132.783 109.957C125.335 113.177 116.585 114.909 107.269 114.638C97.9529 114.366 89.3181 112.127 82.0706 108.48Z" fill="url(#paint11_radial_1031_6556)"/>
<path fill-rule="evenodd" clip-rule="evenodd" d="M140.713 43.1211C138.833 43.1211 137.309 44.6452 137.309 46.5254V166.81V166.81L139.578 189.505H141.848L144.117 166.81L144.117 166.81L144.117 46.5254C144.117 44.6452 142.593 43.1211 140.713 43.1211Z" fill="#1E1E1E"/>
<rect x="133.898" y="27.9795" width="9.07809" height="9.07809" rx="2.26952" transform="rotate(-45 133.898 27.9795)" fill="#1E1E1E"/>
<defs>
<linearGradient id="paint0_linear_1031_6556" x1="228.238" y1="175.28" x2="146.667" y2="107.568" gradientUnits="userSpaceOnUse">
<stop stop-color="#F8E4DB"/>
<stop offset="0.0997837" stop-color="#BADFD7"/>
<stop offset="0.24" stop-color="#60BFC1"/>
<stop offset="0.4" stop-color="#1EA0B3"/>
<stop offset="0.565" stop-color="#008296"/>
<stop offset="0.885" stop-color="#1E1E1E"/>
</linearGradient>
<linearGradient id="paint1_linear_1031_6556" x1="145.563" y1="94.4457" x2="203.636" y2="165.517" gradientUnits="userSpaceOnUse">
<stop stop-color="#F8E4DB"/>
<stop offset="0.22" stop-color="#FFCCCB"/>
<stop offset="0.42" stop-color="#FDB7B9"/>
<stop offset="0.815" stop-color="#FF6984"/>
</linearGradient>
<linearGradient id="paint2_linear_1031_6556" x1="268.883" y1="32.9079" x2="146.33" y2="97.0214" gradientUnits="userSpaceOnUse">
<stop stop-color="#F8E4DB"/>
<stop offset="0.0997837" stop-color="#BADFD7"/>
<stop offset="0.24" stop-color="#60BFC1"/>
<stop offset="0.4" stop-color="#1EA0B3"/>
<stop offset="0.745" stop-color="#008296"/>
</linearGradient>
<linearGradient id="paint3_linear_1031_6556" x1="144.625" y1="97.022" x2="248.457" y2="87.3764" gradientUnits="userSpaceOnUse">
<stop stop-color="#F8E4DB"/>
<stop offset="0.22" stop-color="#FFCCCB"/>
<stop offset="0.42" stop-color="#FDB7B9"/>
<stop offset="0.815" stop-color="#FF6984"/>
</linearGradient>
<radialGradient id="paint4_radial_1031_6556" cx="0" cy="0" r="1" gradientUnits="userSpaceOnUse" gradientTransform="translate(144.661 93.2721) rotate(59.7285) scale(60.9165 178.394)">
<stop stop-color="#FF8BA0"/>
<stop offset="0.26" stop-color="#FDB7B9"/>
<stop offset="0.71" stop-color="#FFCCCB"/>
<stop offset="1" stop-color="#F8E4DB"/>
</radialGradient>
<radialGradient id="paint5_radial_1031_6556" cx="0" cy="0" r="1" gradientUnits="userSpaceOnUse" gradientTransform="translate(146.502 101.213) rotate(-2.6235) scale(54.3516 157.044)">
<stop stop-color="#FF8BA0"/>
<stop offset="0.26" stop-color="#FDB7B9"/>
<stop offset="0.71" stop-color="#FFCCCB"/>
<stop offset="1" stop-color="#F8E4DB"/>
</radialGradient>
<linearGradient id="paint6_linear_1031_6556" x1="52.0391" y1="176.964" x2="133.61" y2="109.252" gradientUnits="userSpaceOnUse">
<stop stop-color="#F8E4DB"/>
<stop offset="0.0997837" stop-color="#BADFD7"/>
<stop offset="0.24" stop-color="#60BFC1"/>
<stop offset="0.4" stop-color="#1EA0B3"/>
<stop offset="0.565" stop-color="#008296"/>
<stop offset="0.885" stop-color="#1E1E1E"/>
</linearGradient>
<linearGradient id="paint7_linear_1031_6556" x1="136.937" y1="94.4457" x2="78.8644" y2="165.517" gradientUnits="userSpaceOnUse">
<stop stop-color="#F8E4DB"/>
<stop offset="0.22" stop-color="#FFCCCB"/>
<stop offset="0.42" stop-color="#FDB7B9"/>
<stop offset="0.815" stop-color="#FF6984"/>
</linearGradient>
<linearGradient id="paint8_linear_1031_6556" x1="13.617" y1="32.9079" x2="136.17" y2="97.0214" gradientUnits="userSpaceOnUse">
<stop stop-color="#F8E4DB"/>
<stop offset="0.0997837" stop-color="#BADFD7"/>
<stop offset="0.24" stop-color="#60BFC1"/>
<stop offset="0.4" stop-color="#1EA0B3"/>
<stop offset="0.745" stop-color="#008296"/>
</linearGradient>
<linearGradient id="paint9_linear_1031_6556" x1="137.875" y1="97.0229" x2="34.043" y2="87.3773" gradientUnits="userSpaceOnUse">
<stop stop-color="#F8E4DB"/>
<stop offset="0.22" stop-color="#FFCCCB"/>
<stop offset="0.42" stop-color="#FDB7B9"/>
<stop offset="0.815" stop-color="#FF6984"/>
</linearGradient>
<radialGradient id="paint10_radial_1031_6556" cx="0" cy="0" r="1" gradientUnits="userSpaceOnUse" gradientTransform="translate(138.261 93.2711) rotate(120.272) scale(60.9165 178.394)">
<stop stop-color="#FF8BA0"/>
<stop offset="0.26" stop-color="#FDB7B9"/>
<stop offset="0.71" stop-color="#FFCCCB"/>
<stop offset="1" stop-color="#F8E4DB"/>
</radialGradient>
<radialGradient id="paint11_radial_1031_6556" cx="0" cy="0" r="1" gradientUnits="userSpaceOnUse" gradientTransform="translate(135.998 101.213) rotate(-177.377) scale(54.3516 157.044)">
<stop stop-color="#FF8BA0"/>
<stop offset="0.26" stop-color="#FDB7B9"/>
<stop offset="0.71" stop-color="#FFCCCB"/>
<stop offset="1" stop-color="#F8E4DB"/>
</radialGradient>
</defs>
</svg>
